<?xml version="1.0" encoding="utf-8"?>
<!-- Generator: Adobe Illustrator 24.2.3, SVG Export Plug-In . SVG Version: 6.00 Build 0)  -->
<svg version="1.1" xmlns="http://www.w3.org/2000/svg" xmlns:xlink="http://www.w3.org/1999/xlink" x="0px" y="0px"
	 viewBox="0 0 1927.6 1020.5" style="enable-background:new 0 0 1927.6 1020.5;" xml:space="preserve">
<style type="text/css">
	.st0{display:none;}
	.st1{fill:none;stroke:#000000;stroke-width:2;stroke-miterlimit:10;}
	.st2{fill:none;stroke:#FCEE21;stroke-width:23;stroke-miterlimit:1;stroke-dasharray:12,12,12,12,12,12;}
	.st3{fill:none;stroke:#333333;stroke-width:23;stroke-miterlimit:1;stroke-dasharray:12,12,12,12,12,12;}
	.st4{fill:none;stroke:#C1272D;stroke-width:16;stroke-miterlimit:1;stroke-dasharray:12,12,12,12,12,12;}
	.st5{fill:none;stroke:#C1272D;stroke-width:4;stroke-miterlimit:1;}
	.st6{fill:none;stroke:#F7931E;stroke-width:4;stroke-miterlimit:1;}
	.st7{fill:none;stroke:#333333;stroke-width:16;stroke-miterlimit:1;stroke-dasharray:12,12,12,12,12,12;}
	.st8{fill:none;stroke:#FCEE21;stroke-width:16;stroke-miterlimit:1;stroke-dasharray:12,12,12,12,12,12;}
	.st9{fill:none;stroke:#000000;stroke-width:6;stroke-miterlimit:1;}
	.st10{fill:none;}
	.st11{fill:none;stroke:#C1272D;stroke-width:5;stroke-miterlimit:1;stroke-dasharray:3,3,3,3,3,3;}
	.st12{fill:none;stroke:#1A1A1A;stroke-width:5;stroke-miterlimit:1;}
	.st13{fill:none;stroke:#000000;stroke-width:5;stroke-miterlimit:1;}
	.st14{fill:#FCEE21;stroke:#FCEE21;stroke-width:5;stroke-miterlimit:1;}
	.st15{fill:none;stroke:#FCEE21;stroke-width:13;stroke-miterlimit:1;stroke-dasharray:12,12,12,12,12,12;}
	.st16{fill:none;stroke:#333333;stroke-width:13;stroke-miterlimit:1;stroke-dasharray:12,12,12,12,12,12;}
	.st17{fill:none;stroke:#C1272D;stroke-width:12;stroke-miterlimit:1;stroke-dasharray:3,3,3,3,3,3;}
	.st18{fill:none;stroke:#FCEE21;stroke-width:12;stroke-miterlimit:1;stroke-dasharray:3,3,3,3,3,3;}
	.st19{fill:none;stroke:#333333;stroke-width:12;stroke-miterlimit:1;stroke-dasharray:3,3,3,3,3,3;}
	.st20{fill:none;stroke:#000000;stroke-miterlimit:1;}
	.st21{fill:#FCEE21;stroke:#FCEE21;stroke-miterlimit:1;}
	.st22{fill:#4D4D4D;}
	.st23{fill:none;stroke:#FCEE21;stroke-miterlimit:1;}
	.st24{fill:none;stroke:#000000;stroke-width:5;stroke-miterlimit:1;stroke-dasharray:3,3,3,3,3,3;}
	.st25{font-family:'MyriadPro-Regular';}
	.st26{font-size:12px;}
	.st27{fill:#C1272D;}
	.st28{fill:none;stroke:#0071BC;stroke-width:2;stroke-miterlimit:10;}
	.st29{fill:none;stroke:#F15A24;stroke-width:2;stroke-miterlimit:10;}
</style>
<g id="fondo" class="st0">
	
		<image style="display:inline;overflow:visible;" width="2502" height="988" xlink:href="../Desktop/Captura de Pantalla 2022-10-20 a la(s) 14.52.34.png"  transform="matrix(0.7706 0 0 1.0324 1 0)">
	</image>
</g>
<g id="periferia">
	<line class="st1" x1="1075" y1="744" x2="1075" y2="989"/>
	<line class="st1" x1="1907" y1="988" x2="1910" y2="97"/>
	<line class="st1" x1="262" y1="99" x2="1910" y2="97"/>
	<line class="st1" x1="8" y1="443" x2="261" y2="445"/>
	<line class="st1" x1="1075" y1="744" x2="9" y2="740"/>
	<line class="st1" x1="1075" y1="989" x2="1907" y2="988"/>
	<line class="st1" x1="261.5" y1="99" x2="261.5" y2="445"/>
	<line class="st1" x1="8" y1="443" x2="9" y2="740"/>
	<line class="st2" x1="1836" y1="127" x2="262" y2="130"/>
	<line class="st3" x1="1848" y1="127.5" x2="274" y2="130.5"/>
	<line class="st4" x1="1841.5" y1="141.5" x2="1841.5" y2="583.5"/>
	<line class="st4" x1="1806" y1="563" x2="1834" y2="594"/>
	<line class="st4" x1="1693" y1="564" x2="1806" y2="563"/>
	<line class="st4" x1="1735.7" y1="797" x2="1857" y2="837"/>
	<rect x="1557" y="703" class="st5" width="40" height="124"/>
	<polygon class="st5" points="1704,939 1665,922 1702,763 1739,777 	"/>
	<rect x="1604" y="703" class="st6" width="22" height="76"/>
	<rect x="1676" y="631" class="st6" width="116" height="45"/>
	<rect x="1824" y="687" class="st6" width="33" height="130"/>
	<line class="st7" x1="1826" y1="684" x2="1827" y2="597"/>
	<line class="st8" x1="1826" y1="671" x2="1827" y2="612"/>
	<line class="st7" x1="1873" y1="679.2" x2="1820.8" y2="679.2"/>
	<line class="st8" x1="1861.2" y1="679" x2="1825.8" y2="679"/>
	<line class="st7" x1="1867.5" y1="687.6" x2="1866.5" y2="844"/>
	<line class="st8" x1="1867" y1="676" x2="1866" y2="834"/>
	<rect x="1836" y="594" class="st1" width="72" height="74"/>
	<rect x="1876" y="668" class="st1" width="32" height="175"/>
	<line class="st2" x1="981.6" y1="616.3" x2="530.9" y2="619.3"/>
	<line class="st3" x1="994" y1="615.8" x2="543.4" y2="618.8"/>
	<line class="st2" x1="982.2" y1="606.3" x2="981.7" y2="534.6"/>
	<line class="st3" x1="981.6" y1="618.7" x2="981.1" y2="547"/>
	<g>
		<g>
			<line class="st9" x1="642.5" y1="488.5" x2="574" y2="489"/>
			<g>
				<path d="M561.3,489.1c5.9-2.3,13.3-6.1,17.9-10.1l-3.5,10l3.7,10C574.7,495,567.3,491.3,561.3,489.1z"/>
			</g>
		</g>
	</g>
	<g>
		<path class="st10" d="M908.4,488.6"/>
	</g>
	<g>
		<path class="st10" d="M1090.4,493.6"/>
	</g>
	<g>
		<path class="st10" d="M1158.4,491.6"/>
	</g>
	<g>
		<path class="st10" d="M1356.4,493.6"/>
	</g>
	<g>
		<path class="st10" d="M1424.4,491.6"/>
	</g>
	<g>
		<g>
			<line class="st9" x1="587" y1="508.8" x2="655.5" y2="508.8"/>
			<g>
				<path d="M668.1,508.8c-6,2.2-13.4,6-17.9,10l3.6-10l-3.6-10C654.8,502.8,662.2,506.6,668.1,508.8z"/>
			</g>
		</g>
	</g>
	<g>
		<g>
			<line class="st9" x1="891.3" y1="494.2" x2="822.8" y2="494.7"/>
			<g>
				<path d="M810.1,494.8c5.9-2.3,13.3-6.1,17.9-10.1l-3.5,10l3.7,10C823.5,500.7,816.1,496.9,810.1,494.8z"/>
			</g>
		</g>
	</g>
	<g>
		<g>
			<line class="st9" x1="835.8" y1="514.5" x2="904.3" y2="514.5"/>
			<g>
				<path d="M916.9,514.5c-6,2.2-13.4,6-17.9,10l3.6-10l-3.6-10C903.6,508.5,911,512.3,916.9,514.5z"/>
			</g>
		</g>
	</g>
	<g>
		<g>
			<line class="st9" x1="1129.3" y1="498.2" x2="1060.8" y2="498.7"/>
			<g>
				<path d="M1048.1,498.8c5.9-2.3,13.3-6.1,17.9-10.1l-3.5,10l3.7,10C1061.5,504.7,1054.1,500.9,1048.1,498.8z"/>
			</g>
		</g>
	</g>
	<g>
		<g>
			<line class="st9" x1="1073.8" y1="518.5" x2="1142.3" y2="518.5"/>
			<g>
				<path d="M1154.9,518.5c-6,2.2-13.4,6-17.9,10l3.6-10l-3.6-10C1141.6,512.5,1149,516.3,1154.9,518.5z"/>
			</g>
		</g>
	</g>
	<g>
		<g>
			<line class="st9" x1="1418.1" y1="498" x2="1349.6" y2="498.5"/>
			<g>
				<path d="M1336.9,498.6c5.9-2.3,13.3-6.1,17.9-10.1l-3.5,10l3.7,10C1350.3,504.5,1342.9,500.8,1336.9,498.6z"/>
			</g>
		</g>
	</g>
	<g>
		<g>
			<line class="st9" x1="1362.6" y1="518.3" x2="1431.1" y2="518.3"/>
			<g>
				<path d="M1443.7,518.3c-6,2.2-13.4,6-17.9,10l3.6-10l-3.6-10C1430.4,512.3,1437.8,516.1,1443.7,518.3z"/>
			</g>
		</g>
	</g>
	<g>
		<g>
			<line class="st9" x1="1740.1" y1="500" x2="1671.6" y2="500.5"/>
			<g>
				<path d="M1658.9,500.6c5.9-2.3,13.3-6.1,17.9-10.1l-3.5,10l3.7,10C1672.3,506.5,1664.9,502.8,1658.9,500.6z"/>
			</g>
		</g>
	</g>
	<g>
		<g>
			<line class="st9" x1="1684.6" y1="520.3" x2="1753.1" y2="520.3"/>
			<g>
				<path d="M1765.7,520.3c-6,2.2-13.4,6-17.9,10l3.6-10l-3.6-10C1752.4,514.3,1759.8,518.1,1765.7,520.3z"/>
			</g>
		</g>
	</g>
	<g>
		<g>
			<line class="st9" x1="1655.9" y1="619.3" x2="1655.7" y2="687.8"/>
			<g>
				<path d="M1655.6,700.5c-2.2-6-5.9-13.4-9.9-18l10,3.6l10-3.6C1661.7,687.1,1657.9,694.5,1655.6,700.5z"/>
			</g>
		</g>
	</g>
	<g>
		<g>
			<line class="st9" x1="1805.6" y1="702" x2="1806.3" y2="633.6"/>
			<g>
				<path d="M1806.5,620.9c2.2,6,5.8,13.4,9.8,18.1l-9.9-3.7l-10,3.5C1800.3,634.2,1804.2,626.8,1806.5,620.9z"/>
			</g>
		</g>
	</g>
	<line class="st11" x1="1684.4" y1="566.1" x2="1684.5" y2="621.5"/>
	<line class="st11" x1="1718.4" y1="565.9" x2="1718.5" y2="621.3"/>
	<line class="st11" x1="1748.4" y1="565.9" x2="1748.5" y2="621.3"/>
	<line class="st11" x1="1781.4" y1="565.9" x2="1781.5" y2="621.3"/>
	<rect x="1692.5" y="573.5" class="st12" width="20" height="46"/>
	<rect x="1756.5" y="572.5" class="st12" width="20" height="46"/>
	<rect x="1722.3" y="573.8" class="st12" width="20" height="46"/>
	<rect x="993.5" y="582.5" class="st13" width="73" height="61"/>
	<rect x="1066.5" y="582.5" class="st13" width="333" height="61"/>
	<rect x="1399.5" y="558.5" class="st13" width="154" height="85"/>
	<rect x="1553.5" y="619.5" class="st14" width="73" height="73"/>
	<rect x="1579.5" y="558.5" class="st13" width="25" height="61"/>
	<rect x="1553.5" y="558.5" class="st13" width="76" height="61"/>
	<line class="st15" x1="269.5" y1="482.5" x2="269.5" y2="126.5"/>
	<line class="st16" x1="269.5" y1="470.5" x2="269.7" y2="114.9"/>
	<g>
		<g>
			<line class="st9" x1="477.7" y1="540.9" x2="477" y2="609"/>
			<g>
				<path d="M476.9,621.7c-2.2-6-5.9-13.4-9.8-18l10,3.7l10-3.5C483,608.4,479.1,615.7,476.9,621.7z"/>
			</g>
		</g>
	</g>
	<g>
		<g>
			<line class="st9" x1="507.4" y1="669.3" x2="506.9" y2="600.8"/>
			<g>
				<path d="M506.8,588.2c2.3,5.9,6.1,13.3,10.1,17.9l-10-3.5l-10,3.7C500.9,601.6,504.6,594.1,506.8,588.2z"/>
			</g>
		</g>
	</g>
	<line class="st17" x1="531.2" y1="615.1" x2="531.3" y2="670.5"/>
	<line class="st17" x1="525" y1="664" x2="563" y2="664"/>
	<line class="st17" x1="557" y1="669" x2="557" y2="684"/>
	<line class="st18" x1="557.1" y1="683.9" x2="557.2" y2="739.3"/>
	<line class="st19" x1="557.3" y1="687.4" x2="557" y2="741"/>
	<line class="st17" x1="244.2" y1="628.7" x2="244.3" y2="684.1"/>
	<line class="st17" x1="275.2" y1="628.7" x2="275.3" y2="684.1"/>
	<line class="st17" x1="309" y1="629" x2="309.3" y2="680.1"/>
	<rect x="376" y="575" class="st20" width="87" height="43"/>
	<rect x="327.5" y="620.5" class="st20" width="112" height="63"/>
	<rect x="282.5" y="632.5" class="st12" width="20" height="46"/>
	<rect x="249.5" y="633.5" class="st12" width="20" height="46"/>
	<line class="st12" x1="167.5" y1="681.5" x2="439.5" y2="681.5"/>
	<rect x="167.5" y="684.5" class="st20" width="77" height="53"/>
	<rect x="1459.5" y="274.5" class="st21" width="52" height="71"/>
	<rect x="1522.5" y="274.5" class="st21" width="52" height="71"/>
	<rect x="1463.5" y="379.5" class="st21" width="39" height="50"/>
	<rect x="1552.5" y="380.5" class="st21" width="39" height="50"/>
	<rect x="1476.5" y="345.5" class="st22" width="18" height="34"/>
	<rect x="1476" y="431" class="st22" width="18" height="34"/>
	<rect x="1566" y="431" class="st22" width="18" height="34"/>
	<rect x="1566" y="346" class="st22" width="18" height="34"/>
	<rect x="1536" y="346" class="st22" width="18" height="34"/>
	<rect x="1552" y="349" class="st22" width="18" height="27"/>
	<rect x="1575" y="278" class="st22" width="18" height="31"/>
	<rect x="1441" y="277" class="st22" width="18" height="29"/>
	<rect x="1333.5" y="145.5" class="st23" width="212" height="6"/>
	<rect x="1339.5" y="154.5" class="st23" width="148" height="8"/>
	
		<rect x="1424.2" y="208.8" transform="matrix(-1.836970e-16 1 -1 -1.836970e-16 1696.6943 -1269.6943)" class="st23" width="118" height="9.4"/>
	
		<rect x="1480.5" y="207.5" transform="matrix(-1.836970e-16 1 -1 -1.836970e-16 1752.9911 -1328.5676)" class="st23" width="120.6" height="9.4"/>
	<line class="st24" x1="1482.8" y1="162.8" x2="1482.5" y2="272.5"/>
	<line class="st24" x1="1541" y1="151.6" x2="1540.5" y2="271.5"/>
	<line class="st24" x1="1334.5" y1="148.5" x2="1542.8" y2="148.4"/>
	<line class="st24" x1="1338.3" y1="157.7" x2="1487.5" y2="157.5"/>
	<line class="st18" x1="19.5" y1="452.2" x2="19.6" y2="592.7"/>
	<line class="st19" x1="19.8" y1="461.1" x2="19.4" y2="597"/>
	<line class="st18" x1="25.8" y1="463" x2="254.9" y2="463.3"/>
	<line class="st19" x1="40.4" y1="462.8" x2="262" y2="463.4"/>
	<rect x="244.5" y="514.5" class="st21" width="72.5" height="23"/>
	<rect x="317" y="514.3" class="st22" width="36" height="16.7"/>
	<rect x="243.1" y="547.5" class="st21" width="72.5" height="23"/>
	<rect x="315.6" y="547.3" class="st22" width="36" height="16.7"/>
	<rect x="189.2" y="517.5" class="st22" width="54.8" height="16.7"/>
	<rect x="210.2" y="517.5" class="st22" width="15.8" height="48.5"/>
	<rect x="210.2" y="549.5" class="st22" width="32.8" height="16.7"/>
	
		<rect x="159.6" y="501.9" transform="matrix(-1.836970e-16 1 -1 -1.836970e-16 726.1596 286.9342)" class="st23" width="120.1" height="9.4"/>
	<line class="st24" x1="219.5" y1="455.5" x2="219.5" y2="566.5"/>
	<polygon class="st23" points="16,447.6 239.6,446.6 239.8,456 16.2,457 	"/>
	<line class="st24" x1="237.9" y1="451.2" x2="16.1" y2="451.6"/>
	
		<rect x="191" y="485.9" transform="matrix(-1.836970e-16 1 -1 -1.836970e-16 724.9739 256.1557)" class="st23" width="86.9" height="9.4"/>
	<line class="st24" x1="234.5" y1="455.5" x2="233.7" y2="534"/>
	<rect x="47.7" y="532.7" class="st10" width="94.3" height="14.3"/>
	<text transform="matrix(1 0 0 1 69.001 541.2246)" class="st25 st26">Apartados</text>
	<rect x="376.3" y="604.3" class="st10" width="94.3" height="14.3"/>
	<text transform="matrix(1 0 0 1 391.4723 612.8488)" class="st25 st26">Bufer Envase</text>
	<rect x="996" y="600.7" class="st10" width="68" height="25.3"/>
	<text transform="matrix(1 0 0 1 1009.355 609.184)"><tspan x="0" y="0" class="st25 st26">Filtro de </tspan><tspan x="5.8" y="14.4" class="st25 st26">Arena</tspan></text>
	<rect x="1192.4" y="586.9" class="st10" width="94.3" height="14.3"/>
	<text transform="matrix(1 0 0 1 1202.4124 595.4271)" class="st25 st26">Planta de agua</text>
	<rect x="1429.2" y="561.4" class="st10" width="94.3" height="14.3"/>
	<text transform="matrix(1 0 0 1 1430.2736 569.9201)" class="st25 st26">Cuarto de Bombas</text>
	<rect x="1545.2" y="632.1" class="st10" width="94.3" height="14.3"/>
	<text transform="matrix(1 0 0 1 1574.8621 640.6498)" class="st25 st26">Rampa</text>
	<rect x="1838.4" y="611.6" class="st10" width="69.6" height="44.4"/>
	<text transform="matrix(1 0 0 1 1855.6377 620.0961)"><tspan x="0" y="0" class="st25 st26">Oficina </tspan><tspan x="-8.5" y="14.4" class="st25 st26">Operación </tspan><tspan x="8.1" y="28.8" class="st25 st26">Log</tspan></text>
	<rect x="1838.4" y="706.9" class="st10" width="81.6" height="36.1"/>
	<text transform="matrix(1 0 0 1 1849.2471 715.387)"><tspan x="0" y="0" class="st27 st25 st26">Team Room </tspan><tspan x="7.7" y="14.4" class="st27 st25 st26">Logística</tspan></text>
	<rect x="170.4" y="702.4" class="st10" width="70.6" height="31.6"/>
	<text transform="matrix(1 0 0 1 171.4343 710.876)"><tspan x="0" y="0" class="st25 st26">Area de carga </tspan><tspan x="17.8" y="14.4" class="st25 st26">Gas LP</tspan></text>
	<rect x="231.8" y="499.7" class="st10" width="94.3" height="14.3"/>
	<text transform="matrix(1 0 0 1 240.8332 508.2009)" class="st25 st26">Depaletizadora </text>
	<rect x="1470.2" y="304.2" class="st10" width="94.3" height="14.3"/>
	<text transform="matrix(1 0 0 1 1482.1342 312.7481)" class="st25 st26">Paletizadora 6 </text>
	<rect x="1552" y="148" class="st20" width="30" height="45"/>
	<rect x="1582" y="156" class="st20" width="23" height="50"/>
	<rect x="1543.8" y="205.7" class="st10" width="71.2" height="30.3"/>
	<text transform="matrix(1 0 0 1 1560.1945 214.2372)"><tspan x="0" y="0" class="st25 st26">Area de </tspan><tspan x="-12" y="14.4" class="st25 st26">Separadores</tspan></text>
</g>
<g id="carriles">
	<rect x="1784.5" y="141" class="st28" width="28" height="332"/>
	<rect x="1758" y="141" class="st28" width="28" height="332"/>
	<rect x="1725" y="141" class="st28" width="28" height="332"/>
	<rect x="1698" y="141" class="st28" width="28" height="332"/>
	<rect x="1664.5" y="140.7" class="st28" width="28" height="332"/>
	<rect x="1638" y="140.7" class="st28" width="28" height="332"/>
	<rect x="1605" y="140.7" class="st28" width="28" height="332"/>
	<rect x="1390" y="167" class="st28" width="23" height="288"/>
	<rect x="1367" y="167" class="st28" width="23" height="288"/>
	<rect x="1335" y="167" class="st28" width="23" height="288"/>
	<rect x="1312" y="167" class="st28" width="23" height="288"/>
	<rect x="1281" y="167" class="st28" width="23" height="288"/>
	<rect x="1258" y="167" class="st28" width="23" height="288"/>
	<rect x="1223" y="167" class="st28" width="23" height="288"/>
	<rect x="1200" y="167" class="st28" width="23" height="288"/>
	<rect x="1169" y="167" class="st28" width="23" height="288"/>
	<rect x="1146" y="167" class="st28" width="23" height="288"/>
	<rect x="1075" y="167" class="st28" width="23" height="288"/>
	<rect x="1113" y="167" class="st28" width="23" height="288"/>
	<rect x="856" y="167" class="st29" width="23" height="288"/>
	<rect x="964" y="167" class="st29" width="23" height="288"/>
	<rect x="987" y="167" class="st29" width="23" height="288"/>
	<rect x="879" y="167" class="st29" width="23" height="288"/>
	<rect x="1045" y="167" class="st28" width="23" height="288"/>
	<rect x="1022" y="167" class="st28" width="23" height="288"/>
	<rect x="935" y="167" class="st29" width="23" height="288"/>
	<rect x="912" y="167" class="st29" width="23" height="288"/>
	<rect x="800" y="141" class="st29" width="23" height="314"/>
	<rect x="823" y="141" class="st29" width="23" height="314"/>
	<rect x="770" y="141" class="st29" width="23" height="314"/>
	<rect x="730" y="141" class="st29" width="23" height="314"/>
	<rect x="707" y="141" class="st29" width="23" height="314"/>
	<rect x="674" y="141" class="st29" width="23" height="314"/>
	<rect x="651" y="141" class="st29" width="23" height="314"/>
	<rect x="619" y="141" class="st29" width="23" height="314"/>
	<rect x="596" y="141" class="st29" width="23" height="314"/>
	<rect x="565" y="141" class="st29" width="23" height="314"/>
	<rect x="542" y="141" class="st29" width="23" height="314"/>
	<rect x="508" y="141" class="st29" width="23" height="314"/>
	<rect x="485" y="141" class="st29" width="23" height="314"/>
	<rect x="452" y="141" class="st29" width="23" height="314"/>
	<rect x="429" y="141" class="st29" width="23" height="314"/>
	<rect x="390" y="141" class="st29" width="23" height="287"/>
	<rect x="367" y="141" class="st29" width="23" height="287"/>
	<rect x="335" y="141" class="st29" width="23" height="287"/>
	<rect x="312" y="141" class="st29" width="23" height="287"/>
	<rect x="281" y="141" class="st29" width="23" height="287"/>
	<rect x="35" y="474" class="st29" width="121" height="107"/>
	<rect x="550" y="553.6" class="st29" width="23" height="51.1"/>
	<rect x="574.1" y="553.6" class="st29" width="23" height="51"/>
	<rect x="606.8" y="553.6" class="st29" width="23" height="51.1"/>
	<rect x="630.9" y="553.6" class="st29" width="23" height="51"/>
	<rect x="661.2" y="553.6" class="st29" width="23" height="51.1"/>
	<rect x="685.3" y="553.6" class="st29" width="23" height="51"/>
	<rect x="715.5" y="553.6" class="st29" width="23" height="51.1"/>
	<rect x="739.6" y="553.6" class="st29" width="23" height="51"/>
	<rect x="778.8" y="553.6" class="st29" width="23" height="51.1"/>
	<rect x="808.8" y="553.6" class="st29" width="23" height="51.1"/>
	<rect x="833" y="553.6" class="st29" width="23" height="51"/>
	<rect x="863.1" y="553.6" class="st29" width="23" height="51.1"/>
	<rect x="887.2" y="553.6" class="st29" width="23" height="51"/>
	<rect x="922.1" y="553.6" class="st29" width="23" height="51.1"/>
	<rect x="946.2" y="553.6" class="st29" width="23" height="51"/>
	<rect x="1848" y="141" class="st28" width="52" height="26"/>
	<rect x="1848" y="174" class="st28" width="52" height="26"/>
	<rect x="1848" y="206" class="st28" width="52" height="26"/>
	<rect x="1848" y="238" class="st28" width="52" height="26"/>
	<rect x="1848" y="270" class="st28" width="52" height="26"/>
	<rect x="1848" y="297" class="st28" width="52" height="26"/>
	<rect x="1848" y="328" class="st28" width="52" height="26"/>
</g>
</svg>
