<?xml version="1.0" encoding="UTF-8" standalone="no"?>
<!-- Created with Inkscape (http://www.inkscape.org/) -->

<svg
   version="1.1"
   id="svg9"
   width="2560"
   height="1440"
   viewBox="0 0 2560 1440"
   sodipodi:docname="Logistica_seguridad.ai"
   xmlns:inkscape="http://www.inkscape.org/namespaces/inkscape"
   xmlns:sodipodi="http://sodipodi.sourceforge.net/DTD/sodipodi-0.dtd"
   xmlns="http://www.w3.org/2000/svg"
   xmlns:svg="http://www.w3.org/2000/svg">
  <defs
     id="defs13">
    <clipPath
       clipPathUnits="userSpaceOnUse"
       id="clipPath2253">
      <path
         d="M 0,1080 H 1920 V 0 H 0 Z"
         id="path2251" />
    </clipPath>
    <clipPath
       clipPathUnits="userSpaceOnUse"
       id="clipPath2381">
      <path
         d="m 218.489,691.423 h 18.634 v -10.579 h -18.634 z"
         id="path2379" />
    </clipPath>
    <clipPath
       clipPathUnits="userSpaceOnUse"
       id="clipPath2397">
      <path
         d="m 200.197,703.963 h 30.922 v -39.321 h -30.922 z"
         id="path2395" />
    </clipPath>
  </defs>
  <sodipodi:namedview
     id="namedview11"
     pagecolor="#ffffff"
     bordercolor="#000000"
     borderopacity="0.25"
     inkscape:showpageshadow="2"
     inkscape:pageopacity="0.0"
     inkscape:pagecheckerboard="0"
     inkscape:deskcolor="#d1d1d1"
     showgrid="false" />
  <g
     id="g2241"
     inkscape:groupmode="layer"
     inkscape:label="Page 2"
     transform="matrix(1.3333333,0,0,-1.3333333,0,1440)">
    <g
       id="g2243"
       transform="translate(569.7618,521.657)">
      <path
         d="M 0,0 V 127.389 H 27.335 V 27.335 h 82.36 V 0 Z"
         style="fill:#1d1d1b;fill-opacity:1;fill-rule:nonzero;stroke:none"
         id="path2245" />
    </g>
    <g
       id="g2247">
      <g
         id="g2249"
         clip-path="url(#clipPath2253)">
        <g
           id="g2255"
           transform="translate(797.5508,548.9918)">
          <path
             d="M 0,0 C 21.201,0 36.099,15.243 36.099,36.274 36.099,57.476 21.201,72.719 0,72.719 h -31.539 c -20.505,0 -35.573,-15.243 -35.573,-36.445 C -67.112,15.243 -52.219,0 -31.539,0 Z m -31.539,-27.335 c -36.274,0 -62.908,28.036 -62.908,65.008 0,37.501 26.634,62.381 62.908,62.381 H 0 c 37.497,0 63.433,-25.406 63.433,-62.381 C 63.433,0.701 36.796,-27.335 0,-27.335 Z"
             style="fill:#1d1d1b;fill-opacity:1;fill-rule:nonzero;stroke:none"
             id="path2257" />
        </g>
        <g
           id="g2259"
           transform="translate(949.6352,521.657)">
          <path
             d="m 0,0 c -36.274,0 -62.907,28.036 -62.907,65.007 0,37.502 26.633,62.382 62.907,62.382 H 70.264 V 100.054 H 0 c -20.504,0 -35.573,-15.244 -35.573,-36.445 C -35.573,42.578 -20.68,27.335 0,27.335 H 50.816 V 53.968 H -2.981 V 75.525 H 78.151 V 0 Z"
             style="fill:#1d1d1b;fill-opacity:1;fill-rule:nonzero;stroke:none"
             id="path2261" />
        </g>
        <path
           d="m 1060.895,649.046 h 27.335 V 521.657 h -27.335 z m -3.854,7.887 v 12.091 l 45.56,11.39 v -16.646 z"
           style="fill:#1d1d1b;fill-opacity:1;fill-rule:nonzero;stroke:none"
           id="path2263" />
        <g
           id="g2265"
           transform="translate(1122.921,521.657)">
          <path
             d="m 0,0 v 27.335 h 96.2 c 9.812,0 15.419,5.081 15.419,13.143 0,8.584 -5.607,13.49 -15.419,13.49 H 38.549 c -25.055,0 -40.474,15.073 -40.474,36.625 0,21.026 14.367,36.796 40.825,36.796 h 92.171 V 100.054 H 38.9 c -7.707,0 -12.442,-4.38 -12.442,-12.267 0,-7.882 4.91,-12.262 12.442,-12.262 h 57.3 c 26.809,0 41.18,-11.916 41.18,-37.326 C 137.38,16.296 123.886,0 96.2,0 Z"
             style="fill:#1d1d1b;fill-opacity:1;fill-rule:nonzero;stroke:none"
             id="path2267" />
        </g>
        <g
           id="g2269"
           transform="translate(1330.0303,521.657)">
          <path
             d="m 0,0 v 100.054 h -46.783 v 27.335 H 74.122 V 100.054 H 27.335 V 0 Z"
             style="fill:#1d1d1b;fill-opacity:1;fill-rule:nonzero;stroke:none"
             id="path2271" />
        </g>
        <path
           d="m 1431.478,649.046 h 27.335 V 521.657 h -27.335 z"
           style="fill:#1d1d1b;fill-opacity:1;fill-rule:nonzero;stroke:none"
           id="path2273" />
        <g
           id="g2275"
           transform="translate(1552.7336,521.657)">
          <path
             d="m 0,0 c -36.274,0 -62.907,28.036 -62.907,65.007 0,37.502 26.633,62.382 62.907,62.382 H 70.264 V 100.054 H 0 c -20.504,0 -35.573,-15.244 -35.573,-36.445 C -35.573,42.578 -20.68,27.335 0,27.335 H 70.264 V 0 Z"
             style="fill:#1d1d1b;fill-opacity:1;fill-rule:nonzero;stroke:none"
             id="path2277" />
        </g>
        <g
           id="g2279"
           transform="translate(1782.0964,521.657)">
          <path
             d="m 0,0 -17.874,30.141 h -53.793 l 12.442,21.201 h 28.738 L -53.793,90.593 -107.239,0 h -31.013 l 72.368,120.383 c 3.152,5.256 7.185,8.759 13.139,8.759 5.958,0 9.991,-3.503 13.143,-8.759 L 32.767,0 Z"
             style="fill:#1d1d1b;fill-opacity:1;fill-rule:nonzero;stroke:none"
             id="path2281" />
        </g>
        <g
           id="g2283"
           transform="translate(600.0977,483.6074)">
          <path
             d="m 0,0 c 6.532,0 12.635,-1.635 17.536,-4.384 v -8.944 c -4.642,3.442 -11.004,5.761 -17.624,5.761 -14.182,0 -24.156,-10.658 -24.156,-24.498 0,-13.845 9.974,-24.503 24.845,-24.503 6.878,0 12.981,2.319 17.882,6.274 v -9.027 c -4.989,-3.179 -11.78,-4.814 -18.312,-4.814 -18.913,0 -32.583,13.67 -32.583,31.894 C -32.412,-14.529 -19.518,0 0,0"
             style="fill:#1d1d1b;fill-opacity:1;fill-rule:nonzero;stroke:none"
             id="path2285" />
        </g>
        <g
           id="g2287"
           transform="translate(692.1418,427.0393)">
          <path
             d="M 0,0 C 13.582,0 23.468,10.833 23.468,24.503 23.468,38.168 13.582,49.001 0,49.001 -13.586,49.001 -23.472,38.168 -23.472,24.503 -23.472,10.833 -13.586,0 0,0 m 0,56.568 c 18.054,0 31.636,-14.012 31.636,-32.065 0,-18.054 -13.582,-32.07 -31.636,-32.07 -18.054,0 -31.64,14.016 -31.64,32.07 0,18.053 13.586,32.065 31.64,32.065"
             style="fill:#1d1d1b;fill-opacity:1;fill-rule:nonzero;stroke:none"
             id="path2289" />
        </g>
        <g
           id="g2291"
           transform="translate(768.5303,420.4194)">
          <path
             d="m 0,0 v 62.241 h 7.738 l 26.05,-34.56 c 3.608,-4.726 7.221,-9.627 10.746,-14.529 l 0.171,0.088 c -0.084,5.414 -0.171,11.692 -0.171,17.707 v 31.294 h 7.909 V 0 H 44.705 L 18.659,34.56 c -3.613,4.726 -7.225,9.627 -10.75,14.529 L 7.738,49.001 C 7.826,43.587 7.909,37.309 7.909,31.294 V 0 Z"
             style="fill:#1d1d1b;fill-opacity:1;fill-rule:nonzero;stroke:none"
             id="path2293" />
        </g>
        <g
           id="g2295"
           transform="translate(869.2549,482.6604)">
          <path
             d="M 0,0 H 35.936 V -7.392 H 8.168 v -18.913 h 24.331 v -7.137 H 8.168 v -21.407 h 28.544 v -7.392 H 0 Z"
             style="fill:#1d1d1b;fill-opacity:1;fill-rule:nonzero;stroke:none"
             id="path2297" />
        </g>
        <g
           id="g2299"
           transform="translate(979.9578,483.6074)">
          <path
             d="m 0,0 c 6.532,0 12.635,-1.635 17.536,-4.384 v -8.944 c -4.642,3.442 -11.004,5.761 -17.624,5.761 -14.182,0 -24.156,-10.658 -24.156,-24.498 0,-13.845 9.974,-24.503 24.845,-24.503 6.878,0 12.981,2.319 17.882,6.274 v -9.027 c -4.989,-3.179 -11.78,-4.814 -18.312,-4.814 -18.913,0 -32.583,13.67 -32.583,31.894 C -32.412,-14.529 -19.518,0 0,0"
             style="fill:#1d1d1b;fill-opacity:1;fill-rule:nonzero;stroke:none"
             id="path2301" />
        </g>
        <g
           id="g2303"
           transform="translate(1059.5336,475.2688)">
          <path
             d="M 0,0 H -20.89 V 7.392 H 29.058 V 0 H 8.168 V -54.849 H 0 Z"
             style="fill:#1d1d1b;fill-opacity:1;fill-rule:nonzero;stroke:none"
             id="path2305" />
        </g>
        <g
           id="g2307"
           transform="translate(1135.418,444.9221)">
          <path
             d="M 0,0 H 22.354 L 17.282,12.894 C 15.305,17.878 13.24,23.209 11.35,28.282 H 11.175 C 9.286,23.209 7.221,17.966 5.072,12.635 Z m 7.396,37.738 h 7.821 L 40.921,-24.503 H 32.153 L 25.191,-7.137 H -2.837 l -7.049,-17.366 h -8.339 z"
             style="fill:#1d1d1b;fill-opacity:1;fill-rule:nonzero;stroke:none"
             id="path2309" />
        </g>
        <g
           id="g2311"
           transform="translate(1234.3407,456.7855)">
          <path
             d="M 0,0 C -2.841,4.038 -5.59,8.168 -8.343,12.293 L -8.514,12.205 C -8.426,8.51 -8.343,3.783 -8.343,-1.289 v -35.077 h -7.909 v 62.241 h 7.909 L 13.753,-5.761 35.849,25.875 h 7.821 v -62.241 h -8.168 v 35.077 c 0,5.072 0.088,9.799 0.171,13.494 l -0.171,0.088 C 32.754,8.168 30,4.038 27.164,0 L 13.582,-19.43 Z"
             style="fill:#1d1d1b;fill-opacity:1;fill-rule:nonzero;stroke:none"
             id="path2313" />
        </g>
        <g
           id="g2315"
           transform="translate(1354.4036,427.0393)">
          <path
             d="M 0,0 C 13.582,0 23.468,10.833 23.468,24.503 23.468,38.168 13.582,49.001 0,49.001 -13.586,49.001 -23.472,38.168 -23.472,24.503 -23.472,10.833 -13.586,0 0,0 m 0,56.568 c 18.054,0 31.636,-14.012 31.636,-32.065 0,-18.054 -13.582,-32.07 -31.636,-32.07 -18.054,0 -31.64,14.016 -31.64,32.07 0,18.053 13.586,32.065 31.64,32.065"
             style="fill:#1d1d1b;fill-opacity:1;fill-rule:nonzero;stroke:none"
             id="path2317" />
        </g>
        <g
           id="g2319"
           transform="translate(1429.0736,433.313)">
          <path
             d="m 0,0 c 5.848,-4.467 13.328,-6.361 18.83,-6.361 7.391,0 12.635,3.354 12.635,10.144 0,7.997 -7.309,9.374 -15.472,11.693 -8.772,2.494 -17.282,6.103 -17.282,17.453 0,11.004 7.997,17.365 20.119,17.365 5.844,0 12.893,-1.46 17.878,-4.642 v -8.598 c -5.673,3.955 -12.723,5.761 -18.054,5.761 -6.962,0 -11.863,-3.007 -11.863,-9.373 0,-7.734 7.22,-9.027 14.787,-11.175 9.027,-2.578 17.967,-6.19 17.967,-18.054 0,-11.346 -8.339,-18.054 -20.803,-18.054 -6.019,0 -13.323,1.636 -18.742,4.902 z"
             style="fill:#1d1d1b;fill-opacity:1;fill-rule:nonzero;stroke:none"
             id="path2321" />
        </g>
        <g
           id="g2323"
           transform="translate(1584.8055,456.7855)">
          <path
             d="M 0,0 C -2.841,4.038 -5.59,8.168 -8.343,12.293 L -8.514,12.205 C -8.426,8.51 -8.343,3.783 -8.343,-1.289 v -35.077 h -7.909 v 62.241 h 7.909 L 13.753,-5.761 35.849,25.875 h 7.821 v -62.241 h -8.168 v 35.077 c 0,5.072 0.088,9.799 0.171,13.494 l -0.171,0.088 C 32.754,8.168 30,4.038 27.164,0 L 13.582,-19.43 Z"
             style="fill:#1d1d1b;fill-opacity:1;fill-rule:nonzero;stroke:none"
             id="path2325" />
        </g>
        <g
           id="g2327"
           transform="translate(1688.4456,444.9221)">
          <path
             d="M 0,0 H 22.354 L 17.282,12.894 C 15.305,17.878 13.24,23.209 11.35,28.282 H 11.175 C 9.286,23.209 7.221,17.966 5.072,12.635 Z m 7.396,37.738 h 7.821 L 40.921,-24.503 H 32.153 L 25.191,-7.137 H -2.837 l -7.049,-17.366 h -8.339 z"
             style="fill:#1d1d1b;fill-opacity:1;fill-rule:nonzero;stroke:none"
             id="path2329" />
        </g>
        <g
           id="g2331"
           transform="translate(1767.4207,420.4194)">
          <path
             d="m 0,0 -0.083,0.171 35.248,54.507 -0.088,0.171 H 2.153 v 7.392 H 49.435 L 49.518,62.07 14.27,7.567 14.358,7.392 H 48.83 V 0 Z"
             style="fill:#1d1d1b;fill-opacity:1;fill-rule:nonzero;stroke:none"
             id="path2333" />
        </g>
        <g
           id="g2335"
           transform="translate(282.1493,679.1675)">
          <path
             d="m 0,0 c 12.491,2.925 21.874,8.498 33.73,14.468 20.516,10.33 13.497,4.966 41.679,14.982 l 42.345,12.275 C 90.766,55.643 50.989,66.937 20.73,66.937 5.792,66.937 -8.759,60.198 -22.745,56.905"
             style="fill:#1d1d1b;fill-opacity:1;fill-rule:nonzero;stroke:none"
             id="path2337" />
        </g>
        <g
           id="g2339"
           transform="translate(343.3202,732.4556)">
          <path
             d="m 0,0 c 5.832,-17.321 8.524,-25.316 -1.824,-28.8 l -65.981,-28.152 c -3.655,-1.23 -7.615,0.735 -8.845,4.39 l -16.182,48.056 c -1.231,3.654 0.734,7.615 4.389,8.845 l 35.571,7.492 C -39.324,14.25 -5.832,17.321 0,0"
             style="fill:#ffffff;fill-opacity:1;fill-rule:nonzero;stroke:none"
             id="path2341" />
        </g>
        <g
           id="g2343"
           transform="translate(343.3202,732.4556)">
          <path
             d="m 0,0 c 5.832,-17.321 8.524,-25.316 -1.824,-28.8 l -65.981,-28.152 c -3.655,-1.23 -7.615,0.735 -8.845,4.39 l -16.182,48.056 c -1.231,3.654 0.734,7.615 4.389,8.845 l 35.571,7.492 C -39.324,14.25 -5.832,17.321 0,0 Z"
             style="fill:none;stroke:#1d1d1b;stroke-width:1;stroke-linecap:butt;stroke-linejoin:miter;stroke-miterlimit:10;stroke-dasharray:none;stroke-opacity:1"
             id="path2345" />
        </g>
        <g
           id="g2347"
           transform="translate(264.127,724.8193)">
          <path
             d="m 0,0 11.533,-34.251 c 1.814,-5.388 -0.044,-10.877 -4.151,-12.259 l -2.329,-0.785 c -0.947,-0.318 -2.053,0.43 -2.471,1.672 0,0 -1.299,6.602 -7.465,24.912 -6.788,20.16 -9.124,24.353 -9.124,24.353 -0.418,1.242 0.01,2.507 0.957,2.826 l 2.329,0.784 C -6.614,8.635 -1.814,5.388 0,0"
             style="fill:#ffffff;fill-opacity:1;fill-rule:nonzero;stroke:none"
             id="path2349" />
        </g>
        <g
           id="g2351"
           transform="translate(263.2012,723.9705)">
          <path
             d="m 0,0 11.186,-33.219 c 1.759,-5.226 -0.189,-10.599 -4.353,-12.001 l -2.361,-0.795 c -0.96,-0.323 -2.067,0.391 -2.472,1.596 0,0 -1.224,6.415 -7.204,24.174 -6.584,19.553 -8.886,23.608 -8.886,23.608 -0.405,1.204 0.044,2.443 1.004,2.766 l 2.361,0.795 C -6.561,8.326 -1.76,5.226 0,0"
             style="fill:#1d1d1b;fill-opacity:1;fill-rule:nonzero;stroke:none"
             id="path2353" />
        </g>
        <g
           id="g2355"
           transform="translate(262.9932,723.772)">
          <path
             d="m 0,0 11.108,-32.988 c 1.747,-5.19 -0.14,-10.509 -4.215,-11.882 l -2.311,-0.778 c -0.939,-0.316 -2.027,0.397 -2.43,1.593 0,0 -1.227,6.367 -7.166,24.003 -6.538,19.417 -8.812,23.448 -8.812,23.448 -0.402,1.195 0.033,2.421 0.972,2.738 l 2.311,0.778 C -6.468,8.284 -1.747,5.19 0,0"
             style="fill:#1d1d1b;fill-opacity:1;fill-rule:nonzero;stroke:none"
             id="path2357" />
        </g>
        <g
           id="g2359"
           transform="translate(263.2012,723.9705)">
          <path
             d="m 0,0 11.186,-33.219 c 1.759,-5.226 -0.189,-10.599 -4.353,-12.001 l -2.361,-0.795 c -0.96,-0.323 -2.067,0.391 -2.472,1.596 0,0 -1.224,6.415 -7.204,24.174 -6.584,19.553 -8.886,23.608 -8.886,23.608 -0.405,1.204 0.044,2.443 1.004,2.766 l 2.361,0.795 C -6.561,8.326 -1.76,5.226 0,0"
             style="fill:#1d1d1b;fill-opacity:1;fill-rule:nonzero;stroke:none"
             id="path2361" />
        </g>
        <g
           id="g2363"
           transform="translate(222.1985,568.732)">
          <path
             d="M 0,0 C 6.327,-0.342 12.648,-0.684 18.964,-1.026 1.267,-44.259 1.512,-92.564 20.562,-142.973 c -10.294,-2.321 -21.366,-3.503 -32.018,-3.503 -0.865,0 -1.726,0.008 -2.584,0.024 C -27.651,-93.46 -22.37,-43.751 0,0 m 93.745,98.383 c 2.68,-0.618 5.362,-1.236 8.043,-1.855 C 81.43,82.29 64.275,66.804 50.361,50.245 c -4.385,0.6 -8.77,1.199 -13.155,1.798 15.771,16.683 34.647,32.178 56.539,46.34 m 61.011,32.577 c 1.538,-0.502 3.077,-1.006 4.617,-1.509 -11.841,-5.557 -22.994,-11.401 -33.462,-17.516 -2.137,0.579 -4.273,1.157 -6.408,1.736 11.107,6.052 22.859,11.819 35.253,17.289 m 37.874,16.42 c 1.028,-0.405 2.057,-0.812 3.085,-1.218 -7.593,-2.853 -14.956,-5.805 -22.09,-8.853 -1.311,0.464 -2.621,0.928 -3.931,1.392 7.432,2.993 15.077,5.887 22.936,8.679 m 7.844,-251.026 C 116.04,-35.229 98.045,48.423 175.855,111.877 c 2.418,2.14 6.429,5.569 10.787,9.349 35.737,-34.735 56.1,-83.108 56.1,-133.948 0,-37.354 -10.833,-72.122 -29.373,-101.158 -4.418,3.357 -8.752,6.753 -12.895,10.234 M 85.129,-213.933 c 0.23,0.024 0.459,0.046 0.688,0.071 28.538,2.982 52.232,11.914 70.514,22.089 62.287,33.875 104.879,101.402 104.879,179.051 0,55.145 -22.093,108.13 -60.792,146.26 2.147,2.027 3.97,3.838 5.173,5.218 -7.101,-4.305 -27.889,-20.062 -34.013,-24.61 -84.687,-62.876 -76.904,-147.758 -0.185,-221.5 8.706,-8.632 18.226,-16.991 28.411,-25.082 -3.383,-4.074 -6.925,-7.998 -10.635,-11.751 -13.418,11.068 -25.608,22.575 -36.35,34.465 -59.306,63.846 -70.79,133.863 -21.981,191.078 24.349,28.542 83.026,63.115 84.819,72.305 C 178.85,155.685 127.688,136.965 62.656,107.752 -2.522,78.474 -78.998,25.197 -125.123,-50.847 -132.241,-62.582 -86.261,-214.95 65.52,-214.95 c 3.22,0 6.373,0.099 9.489,0.249 0.592,0.029 1.18,0.075 1.771,0.11 2.827,0.161 5.61,0.382 8.349,0.658"
             style="fill:#1d1d1b;fill-opacity:1;fill-rule:nonzero;stroke:none"
             id="path2365" />
        </g>
        <g
           id="g2367"
           transform="translate(187.1137,704.0437)">
          <path
             d="m 0,0 c -51.816,-26.976 -77.618,-89.663 -79.75,-153.066 l 18.308,20.398 c 27.421,28.285 59.708,54.391 96.065,76.305"
             style="fill:#1d1d1b;fill-opacity:1;fill-rule:nonzero;stroke:none"
             id="path2369" />
        </g>
        <g
           id="g2371"
           transform="translate(228.8205,698.851)">
          <path
             d="m 0,0 c 0.778,0.488 1.816,0.273 2.318,-0.48 l 5.597,-8.398 c 0.502,-0.753 0.278,-1.759 -0.5,-2.247 l -9.196,-5.767 c -0.779,-0.488 -1.816,-0.273 -2.318,0.48 l -5.597,8.397 c -0.502,0.754 -0.279,1.76 0.5,2.248 z m -9.95,-34.083 1.759,1.103 2.875,7.394 c 0.709,1.823 2.273,3.592 4.303,4.865 l 14.149,8.873 c 0.359,0.226 0.5,0.636 0.313,0.916 L 2.658,5.259 c -0.187,0.28 -0.63,0.324 -0.99,0.098 l -14.149,-8.873 c -2.03,-1.273 -4.334,-1.931 -6.339,-1.81 l -8.132,0.492 -1.759,-1.103 z"
             style="fill:#1d1d1b;fill-opacity:1;fill-rule:nonzero;stroke:none"
             id="path2373" />
        </g>
        <g
           id="g2375">
          <g
             id="g2377" />
          <g
             id="g2389">
            <g
               clip-path="url(#clipPath2381)"
               opacity="0.75"
               id="g2387">
              <g
                 transform="translate(237.113,688.5957)"
                 id="g2385">
                <path
                   d="m 0,0 c -0.1,-0.386 -0.341,-0.74 -0.713,-0.973 l -9.538,-5.981 c -0.778,-0.488 -1.816,-0.273 -2.318,0.48 l -5.597,8.397 c -0.143,0.215 -0.402,0.667 -0.431,0.904 -0.109,-0.421 0.133,-1.098 0.394,-1.491 l 5.598,-8.397 c 0.502,-0.753 1.49,-0.894 2.268,-0.406 l 9.538,5.981 C -0.243,-1.137 0.073,-0.597 0,0"
                   style="fill:#1d1d1b;fill-opacity:1;fill-rule:nonzero;stroke:none"
                   id="path2383" />
              </g>
            </g>
          </g>
        </g>
        <g
           id="g2391">
          <g
             id="g2393" />
          <g
             id="g2405">
            <g
               clip-path="url(#clipPath2397)"
               opacity="0.75"
               id="g2403">
              <g
                 transform="translate(216.7948,694.8755)"
                 id="g2401">
                <path
                   d="m 0,0 c -1.999,-1.253 -4.273,-1.892 -6.258,-1.758 l -8.046,0.545 -1.732,-1.086 18.495,-27.749 -0.297,-0.186 -18.76,28.146 1.732,1.086 8.046,-0.545 c 1.985,-0.134 4.259,0.505 6.258,1.758 L 13.369,8.948 C 13.71,9.162 14.127,9.124 14.324,8.871 14.192,8.859 14.056,8.815 13.931,8.737 Z"
                   style="fill:#1d1d1b;fill-opacity:1;fill-rule:nonzero;stroke:none"
                   id="path2399" />
              </g>
            </g>
          </g>
        </g>
        <g
           id="g2407"
           transform="translate(169.797,685.3405)">
          <path
             d="m 0,0 c 0.151,-0.252 0.308,-0.5 0.453,-0.755 l 5.619,-9.896 c 4.672,-8.229 9.949,-16.141 15.771,-23.648 l 6.879,-8.87 c 0.183,-0.235 0.354,-0.478 0.53,-0.718 2.388,-3.236 6.497,-4.414 9.365,-2.616 l 16.354,10.257 c 2.867,1.798 3.447,5.914 1.386,9.354 -0.154,0.256 -0.314,0.509 -0.461,0.769 l -5.452,9.621 C 45.779,-8.269 40.509,-0.352 34.693,7.16 l -7.068,9.129 c -0.179,0.232 -0.347,0.471 -0.52,0.706 -2.387,3.241 -6.5,4.422 -9.369,2.623 L 1.382,9.361 C -1.487,7.562 -2.066,3.441 0,0 m 17.307,9.952 c 1.169,0.733 3.473,-0.69 5.237,-3.198 0.128,-0.182 0.253,-0.366 0.384,-0.546 l 5.145,-7.118 c 4.233,-5.857 8.255,-11.895 12.019,-18.045 l 4.4,-7.188 c 0.118,-0.194 0.242,-0.386 0.364,-0.578 1.63,-2.588 2.021,-5.205 0.853,-5.938 l -6.663,-4.178 c -1.169,-0.733 -3.47,0.688 -5.233,3.193 -0.131,0.185 -0.259,0.372 -0.392,0.556 l -5.004,6.917 c -4.236,5.855 -8.26,11.89 -12.028,18.039 l -4.531,7.395 C 11.741,-0.546 11.62,-0.358 11.5,-0.169 9.867,2.42 9.475,5.041 10.644,5.774 Z"
             style="fill:#ffffff;fill-opacity:1;fill-rule:nonzero;stroke:none"
             id="path2409" />
        </g>
        <g
           id="g2411"
           transform="translate(169.797,685.3405)">
          <path
             d="m 0,0 c 0.151,-0.252 0.308,-0.5 0.453,-0.755 l 5.619,-9.896 c 4.672,-8.229 9.949,-16.141 15.771,-23.648 l 6.879,-8.87 c 0.183,-0.235 0.354,-0.478 0.53,-0.718 2.388,-3.236 6.497,-4.414 9.365,-2.616 l 16.354,10.257 c 2.867,1.798 3.447,5.914 1.386,9.354 -0.154,0.256 -0.314,0.509 -0.461,0.769 l -5.452,9.621 C 45.779,-8.269 40.509,-0.352 34.693,7.16 l -7.068,9.129 c -0.179,0.232 -0.347,0.471 -0.52,0.706 -2.387,3.241 -6.5,4.422 -9.369,2.623 L 1.382,9.361 C -1.487,7.562 -2.066,3.441 0,0 Z m 17.307,9.952 c 1.169,0.733 3.473,-0.69 5.237,-3.198 0.128,-0.182 0.253,-0.366 0.384,-0.546 l 5.145,-7.118 c 4.233,-5.857 8.255,-11.895 12.019,-18.045 l 4.4,-7.188 c 0.118,-0.194 0.242,-0.386 0.364,-0.578 1.63,-2.588 2.021,-5.205 0.853,-5.938 l -6.663,-4.178 c -1.169,-0.733 -3.47,0.688 -5.233,3.193 -0.131,0.185 -0.259,0.372 -0.392,0.556 l -5.004,6.917 c -4.236,5.855 -8.26,11.89 -12.028,18.039 l -4.531,7.395 C 11.741,-0.546 11.62,-0.358 11.5,-0.169 9.867,2.42 9.475,5.041 10.644,5.774 Z"
             style="fill:none;stroke:#1d1d1b;stroke-width:1;stroke-linecap:butt;stroke-linejoin:miter;stroke-miterlimit:10;stroke-dasharray:none;stroke-opacity:1"
             id="path2413" />
        </g>
        <g
           id="g2415"
           transform="translate(1508.7782,386.4851)">
          <path
             d="m 0,0 -1.5,-2.9 c -3.134,1.667 -6.384,2.5 -9.751,2.5 -2.533,0 -4.559,-0.525 -6.075,-1.576 -1.517,-1.049 -2.276,-2.558 -2.276,-4.525 0,-1.467 0.475,-2.649 1.425,-3.55 0.95,-0.9 2.426,-1.667 4.426,-2.3 l 6.25,-1.95 c 2.9,-0.9 5.125,-2.051 6.676,-3.45 1.55,-1.4 2.325,-3.334 2.325,-5.801 0,-3 -1.117,-5.367 -3.351,-7.1 -2.233,-1.734 -5.216,-2.6 -8.95,-2.6 -4.834,0 -9.267,1.25 -13.301,3.75 l 1.75,2.7 c 3.434,-2.134 7.267,-3.2 11.501,-3.2 2.701,0 4.833,0.566 6.401,1.7 1.566,1.133 2.349,2.667 2.349,4.601 0,1.699 -0.558,3.024 -1.674,3.974 -1.118,0.951 -2.693,1.726 -4.726,2.326 l -6.2,1.85 c -5.667,1.7 -8.501,4.717 -8.501,9.05 0,2.9 1.092,5.184 3.275,6.851 2.184,1.667 5.075,2.5 8.676,2.5 C -7.384,2.85 -3.634,1.9 0,0"
             style="fill:#1d1d1b;fill-opacity:1;fill-rule:nonzero;stroke:none"
             id="path2417" />
        </g>
        <g
           id="g2419"
           transform="translate(1547.6278,385.8347)">
          <path
             d="M 0,0 H -19.052 V -13.45 H -1.4 V -16.4 H -19.052 V -29.102 H 0 v -2.95 H -22.552 V 2.95 H 0 Z"
             style="fill:#1d1d1b;fill-opacity:1;fill-rule:nonzero;stroke:none"
             id="path2421" />
        </g>
        <g
           id="g2423"
           transform="translate(1585.0526,388.4099)">
          <path
             d="m 0,0 c 2.15,-0.616 3.959,-1.475 5.425,-2.575 l -1.35,-2.75 c -3.1,2.033 -6.467,3.05 -10.1,3.05 -4.568,0 -8.285,-1.375 -11.151,-4.125 -2.867,-2.75 -4.301,-6.359 -4.301,-10.826 0,-4.367 1.409,-7.917 4.226,-10.651 2.816,-2.733 6.492,-4.1 11.025,-4.1 3.667,0 6.768,0.934 9.301,2.8 v 9.651 H -7.126 v 2.95 H 6.275 v -14.001 c -1.566,-1.433 -3.516,-2.558 -5.85,-3.375 -2.333,-0.817 -4.617,-1.225 -6.851,-1.225 -5.566,0 -10.067,1.667 -13.501,5 -3.432,3.334 -5.149,7.667 -5.149,13.001 0,5.367 1.724,9.726 5.175,13.076 3.45,3.35 7.925,5.025 13.425,5.025 C -4.309,0.925 -2.15,0.617 0,0"
             style="fill:#1d1d1b;fill-opacity:1;fill-rule:nonzero;stroke:none"
             id="path2425" />
        </g>
        <g
           id="g2427"
           transform="translate(1633.827,366.534)">
          <path
             d="m 0,0 c 0,-4.034 -1.25,-7.259 -3.75,-9.676 -2.5,-2.417 -5.767,-3.625 -9.801,-3.625 -4.066,0 -7.35,1.208 -9.85,3.625 -2.5,2.417 -3.75,5.642 -3.75,9.676 v 22.251 h 3.5 V 0 c 0,-3.067 0.933,-5.518 2.8,-7.351 1.867,-1.834 4.3,-2.75 7.3,-2.75 3.001,0 5.426,0.916 7.276,2.75 C -4.425,-5.518 -3.5,-3.067 -3.5,0 V 22.251 H 0 Z"
             style="fill:#1d1d1b;fill-opacity:1;fill-rule:nonzero;stroke:none"
             id="path2429" />
        </g>
        <g
           id="g2431"
           transform="translate(1654.6757,385.8347)">
          <path
             d="m 0,0 v -13.851 h 10.101 c 1.9,0 3.433,0.634 4.6,1.901 1.167,1.266 1.75,2.916 1.75,4.95 0,2.1 -0.583,3.792 -1.75,5.075 C 13.534,-0.642 12.001,0 10.101,0 Z m 10.101,2.95 c 3,0 5.409,-0.917 7.225,-2.75 1.817,-1.833 2.726,-4.233 2.726,-7.2 0,-2.767 -0.842,-5.051 -2.526,-6.851 -1.683,-1.799 -3.925,-2.783 -6.725,-2.95 h -0.6 l 10.101,-14.951 v -0.3 h -3.7 L 6.601,-16.801 H 0 V -32.052 H -3.5 V 2.95 Z"
             style="fill:#1d1d1b;fill-opacity:1;fill-rule:nonzero;stroke:none"
             id="path2433" />
        </g>
        <path
           d="m 1693.725,353.783 h -3.5 v 35.002 h 3.5 z"
           style="fill:#1d1d1b;fill-opacity:1;fill-rule:nonzero;stroke:none"
           id="path2435" />
        <g
           id="g2437"
           transform="translate(1715.0243,385.8347)">
          <path
             d="m 0,0 v -29.102 h 6.95 c 4.301,0 7.784,1.342 10.451,4.026 2.667,2.683 4,6.191 4,10.525 0,4.334 -1.333,7.842 -4,10.526 C 14.734,-1.342 11.251,0 6.95,0 Z m 6.95,2.95 c 5.367,0 9.709,-1.616 13.027,-4.85 3.316,-3.234 4.975,-7.451 4.975,-12.651 0,-5.2 -1.659,-9.417 -4.975,-12.65 -3.318,-3.234 -7.66,-4.851 -13.027,-4.851 H -3.5 V 2.95 Z"
             style="fill:#1d1d1b;fill-opacity:1;fill-rule:nonzero;stroke:none"
             id="path2439" />
        </g>
        <g
           id="g2441"
           transform="translate(1758.6249,366.9334)">
          <path
             d="M 0,0 H 14.351 L 7.2,18.451 Z m 23.201,-13.15 h -3.65 l -4.05,10.251 H -1.15 L -5.101,-13.15 h -3.7 L 5.05,21.852 h 4.251 z"
             style="fill:#1d1d1b;fill-opacity:1;fill-rule:nonzero;stroke:none"
             id="path2443" />
        </g>
        <g
           id="g2445"
           transform="translate(1798.6737,385.8347)">
          <path
             d="m 0,0 v -29.102 h 6.95 c 4.301,0 7.784,1.342 10.451,4.026 2.667,2.683 4,6.191 4,10.525 0,4.334 -1.333,7.842 -4,10.526 C 14.734,-1.342 11.251,0 6.95,0 Z m 6.95,2.95 c 5.367,0 9.709,-1.616 13.027,-4.85 3.316,-3.234 4.974,-7.451 4.974,-12.651 0,-5.2 -1.658,-9.417 -4.974,-12.65 -3.318,-3.234 -7.66,-4.851 -13.027,-4.851 H -3.5 V 2.95 Z"
             style="fill:#1d1d1b;fill-opacity:1;fill-rule:nonzero;stroke:none"
             id="path2447" />
        </g>
        <g
           id="g2449"
           transform="translate(1484.6765,335.3261)">
          <path
             d="M 0,0 H 338.946"
             style="fill:#1d1d1b;fill-opacity:1;fill-rule:nonzero;stroke:#1d1d1b;stroke-width:3;stroke-linecap:butt;stroke-linejoin:miter;stroke-miterlimit:10;stroke-dasharray:none;stroke-opacity:1"
             id="path2451" />
        </g>
      </g>
    </g>
  </g>
</svg>
